PathFileType	4	(X/Y/Z)	 s06c0401.trc
DataRate	CameraRate	NumFrames	NumMarkers	Units	OrigDataRate	OrigDataStartFrame	OrigNumFrames
200	200	6	48	mm	200	1251	2000
Frame#	Time	racr			lacr			c7			jug			rlel			rdr			llel			ldr			s2			lic			ric			lasi			rasi			rpsi			lpsi			rgt			lgt			rth1			rth2			rth3			rth4			rlfc			rmfc			rsh1			rsh2			rsh3			rsh4			rlmal			rcal			rtoe			rmt5			lth1			lth2			lth4			lth3			llfc			lmfc			llmal			lcal			lmt5			lsh1			lsh2			lsh3			lsh4			ltoe			SBIKE			LBIKE			RBIKE			
		X1	Y1	Z1	X2	Y2	Z2	X3	Y3	Z3	X4	Y4	Z4	X5	Y5	Z5	X6	Y6	Z6	X7	Y7	Z7	X8	Y8	Z8	X9	Y9	Z9	X10	Y10	Z10	X11	Y11	Z11	X12	Y12	Z12	X13	Y13	Z13	X14	Y14	Z14	X15	Y15	Z15	X16	Y16	Z16	X17	Y17	Z17	X18	Y18	Z18	X19	Y19	Z19	X20	Y20	Z20	X21	Y21	Z21	X22	Y22	Z22	X23	Y23	Z23	X24	Y24	Z24	X25	Y25	Z25	X26	Y26	Z26	X27	Y27	Z27	X28	Y28	Z28	X29	Y29	Z29	X30	Y30	Z30	X31	Y31	Z31	X32	Y32	Z32	X33	Y33	Z33	X34	Y34	Z34	X35	Y35	Z35	X36	Y36	Z36	X37	Y37	Z37	X38	Y38	Z38	X39	Y39	Z39	X40	Y40	Z40	X41	Y41	Z41	X42	Y42	Z42	X43	Y43	Z43	X44	Y44	Z44	X45	Y45	Z45	X46	Y46	Z46	X47	Y47	Z47	X48	Y48	Z48	
1251	6.2550	786.141134	1166.584818	-68.493041	777.928896	1123.213013	-403.517211	838.478441	1248.923790	-244.877957	767.809623	1091.463502	-228.283077	567.966204	1074.097297	84.847114	667.814024	930.287074	-40.493815	547.122310	1056.444072	-530.489786	660.847357	933.416666	-410.781984	257.457909	1222.334108	-182.491600	389.257216	1187.281762	-373.205282	401.265232	1113.663205	-49.307952	401.996795	1135.628084	-345.419336	413.966514	1073.037697	-93.206581	307.371943	1244.181009	-152.894988	296.814366	1254.243522	-212.650368	326.640325	1041.883665	-33.400885	367.304824	1157.943027	-397.330266	330.028713	922.101943	-21.411825	335.661443	832.595439	-29.913415	298.418806	754.302414	-37.393447	370.530584	828.020244	-45.736327	272.829436	650.119349	-50.378022	263.402584	626.015891	-165.083995	228.367958	536.183054	-25.350415	224.960779	450.207526	-44.146437	180.803135	375.573705	-48.903088	250.170651	447.003773	-74.417628	152.300356	303.230648	-57.761704	100.881530	329.695355	-106.295804	234.953423	86.009872	-100.195829	165.682646	159.376037	-34.447254	418.484569	1058.665159	-419.839242	473.812266	1004.976263	-422.984717	521.480690	1032.727780	-397.572184	536.091922	941.212957	-419.630274	587.797237	835.773947	-386.881448	586.590405	820.903407	-266.301035	282.464628	607.660851	-382.229038	203.521551	623.958444	-337.075150	333.838703	474.453451	-404.669471	510.459969	760.648792	-406.777263	453.997070	696.784581	-389.428087	373.498026	662.636493	-396.394103	470.751328	678.504933	-359.983956	403.978840	427.151629	-344.040115	-203.766944	870.819345	-212.669335	-48.868684	84.403045	-419.598457	-50.400956	80.186818	-22.226179	
1252	6.2600	788.049435	1164.287300	-70.269999	777.980104	1121.016606	-403.251070	838.874466	1247.553675	-245.431903	766.411032	1089.901122	-228.776876	569.556077	1073.279171	85.066636	668.263268	929.370858	-40.339117	547.475241	1056.035200	-531.624974	660.352739	933.798615	-410.778426	257.781326	1225.674041	-182.322112	388.754171	1189.533314	-373.277019	400.764618	1117.180978	-46.367944	401.355190	1137.757126	-345.421171	413.463889	1075.190393	-92.667473	307.869376	1247.226896	-152.836224	297.519694	1257.452053	-212.655990	326.112597	1043.923913	-33.410919	365.499221	1160.705064	-395.702837	331.532710	923.681214	-22.511540	339.906456	833.854024	-31.788661	303.791769	755.135790	-39.203564	374.288915	830.465465	-46.935256	279.206895	650.257738	-51.941141	267.932204	626.862404	-166.452281	231.616820	537.540274	-27.117862	224.745740	452.350537	-45.606617	177.253236	379.034800	-50.548440	248.252293	447.501684	-78.333180	146.502736	308.527450	-59.020624	94.987364	335.708503	-106.849348	224.791161	89.863292	-100.099097	156.747179	164.599338	-34.868465	417.440829	1062.047458	-419.874666	471.907243	1008.276072	-423.626538	519.763123	1033.885318	-399.027097	536.815470	942.921785	-418.253486	585.220897	836.649346	-387.299225	584.087537	822.115137	-266.630366	284.400897	600.697034	-382.743433	204.262162	614.191627	-337.656466	341.755203	470.932163	-405.091579	508.187603	760.685357	-407.251756	453.269505	695.138477	-390.462758	373.701565	659.587333	-398.473340	470.781324	676.856598	-361.433503	413.984438	427.133159	-344.114284	-203.747701	870.806803	-212.692741	-48.885198	84.384908	-419.593019	-50.393041	80.153475	-22.249419	
1253	6.2650	788.530714	1163.000669	-71.121217	777.933305	1118.739452	-402.831662	839.276674	1246.196254	-245.848589	764.884857	1088.530286	-229.154817	571.040531	1072.378110	85.466411	668.588763	928.642670	-39.949922	547.578792	1055.621963	-532.741265	659.828635	934.119027	-410.715644	258.296739	1228.926101	-182.373258	388.647749	1191.522197	-372.669806	400.182567	1119.689242	-46.799770	399.647268	1139.096588	-345.116241	412.893063	1077.652941	-92.108694	308.414598	1250.196997	-153.126751	298.347853	1260.529498	-212.872895	325.560599	1046.130805	-33.394080	365.447017	1163.556231	-395.714359	333.915847	924.993008	-24.357863	344.344652	835.594250	-33.298744	310.442875	756.051745	-41.083275	378.804991	833.235262	-48.130005	286.578799	650.777513	-53.855996	273.265643	627.790219	-167.595463	235.766484	539.045586	-28.852017	225.173626	454.533118	-47.596168	174.603517	383.092689	-52.041287	247.843034	448.672750	-80.790416	141.187658	314.404125	-60.036179	89.459465	342.303082	-107.435041	214.881109	94.381764	-99.911350	148.117223	170.396747	-35.245459	415.999111	1064.799820	-420.301282	469.908231	1011.107661	-424.242311	517.616482	1034.461567	-400.750614	535.992080	944.220680	-417.705137	581.954369	836.335507	-387.524883	580.456007	821.564381	-267.346063	286.129324	592.726067	-383.063412	204.817154	603.281106	-337.963408	349.027189	466.560195	-405.096700	505.298112	759.265241	-407.837785	451.979910	692.329581	-391.486678	373.381613	655.003307	-399.440465	470.300175	674.393463	-363.204470	423.587604	426.829004	-344.748075	-203.716825	870.842603	-212.707585	-48.871031	84.395670	-419.588406	-50.407670	80.277826	-22.237924	
1254	6.2700	786.959887	1162.524880	-71.056188	777.766305	1116.458333	-402.274559	839.674877	1244.847643	-246.110989	765.003308	1089.815981	-223.874087	572.317349	1071.231849	86.020745	668.624927	928.057405	-39.662363	547.414716	1055.107025	-533.543766	659.338479	934.342358	-410.648641	258.729258	1232.251606	-182.889552	387.722768	1193.531973	-373.761742	399.341315	1122.213356	-46.684364	399.194083	1141.163206	-346.053349	412.354088	1080.406558	-91.315155	309.012507	1253.223588	-153.696808	299.381019	1263.381439	-213.283746	325.080183	1048.658142	-33.392261	365.167789	1165.977152	-396.016010	336.459443	926.513760	-25.198023	348.983707	837.851105	-34.912750	317.445165	757.143306	-42.895609	384.230697	836.060459	-48.773259	295.150030	651.148335	-55.739252	279.035495	629.030206	-169.264413	240.891547	541.174703	-30.494369	226.620280	457.363507	-49.532612	173.043018	387.891245	-53.399883	248.241021	450.713501	-83.383055	136.303252	320.756197	-60.964335	84.492136	349.576647	-107.869102	205.365463	99.502204	-99.742495	139.940335	176.803900	-35.511725	414.318658	1066.725003	-420.725916	467.853280	1013.385689	-424.798838	515.082875	1034.467666	-402.688843	533.679706	944.851417	-417.794181	577.769978	834.980832	-388.373407	575.920564	819.537881	-268.417799	287.322046	584.332838	-383.193006	205.154007	591.394897	-338.067987	355.817376	461.862680	-405.459567	501.931488	756.292265	-408.518245	450.131893	688.216304	-392.444993	372.294414	649.170139	-399.908194	469.110403	670.760140	-364.388482	432.157517	425.986501	-345.019062	-203.693150	870.925648	-212.793934	-48.893161	84.364682	-419.498477	-50.454205	80.466133	-22.215559	
1255	6.2750	786.993694	1161.008882	-71.817037	777.562031	1114.130982	-401.712656	840.143116	1243.576626	-246.344736	762.859643	1088.285776	-224.586744	573.346633	1070.258764	86.771388	668.552484	927.569122	-39.385316	546.974904	1054.493364	-534.218632	658.723879	934.508189	-410.555987	259.073550	1235.322294	-183.469028	387.158148	1195.081504	-374.049986	398.478546	1125.372257	-46.397600	397.928162	1142.420532	-346.374376	411.747989	1082.964683	-90.587835	309.524954	1256.105909	-154.447521	300.325805	1266.064553	-213.894905	324.767174	1051.191378	-33.326814	364.642588	1167.917708	-396.385793	338.995100	928.230079	-26.841542	354.222910	839.627895	-36.514050	325.117018	758.336908	-44.714133	390.051315	839.528470	-49.748164	304.507098	651.615615	-57.722176	286.007049	630.680132	-170.218507	246.880562	543.923852	-31.944729	228.551297	460.450256	-51.455427	172.879440	393.426254	-54.497412	249.488724	453.875662	-85.930049	132.016898	327.858500	-61.731537	80.157544	357.582937	-108.438551	196.026304	105.251281	-99.492461	131.902401	183.910679	-35.792623	412.411546	1067.827440	-421.050457	465.780439	1015.024818	-425.262926	512.204412	1033.914751	-404.787891	530.005568	944.514487	-418.316717	572.750533	832.835956	-389.340117	570.792742	816.471800	-269.746015	288.234799	575.199158	-383.549125	205.313322	578.769160	-337.916962	362.080774	456.488537	-405.828522	497.833219	752.234976	-409.744974	447.846156	682.844500	-393.334605	370.759908	642.033599	-399.840733	467.265927	665.565826	-364.315398	440.360113	424.582292	-345.731926	-203.624424	871.073386	-212.900792	-48.894145	84.475897	-419.489035	-50.441518	80.594143	-22.201737	
1256	6.2800	786.944571	1159.476897	-72.648017	777.524669	1111.919006	-401.186468	840.693812	1242.262671	-246.452736	760.622642	1086.345323	-225.433041	573.911957	1069.711872	87.996359	668.427268	927.256574	-38.730895	546.345397	1054.090542	-534.609949	658.015266	934.659500	-410.258129	259.804542	1238.009602	-183.934052	386.788271	1196.329164	-374.432445	397.460540	1128.426417	-45.930724	396.753803	1143.378986	-346.766039	410.974824	1085.632030	-89.706499	309.653782	1258.595997	-155.284286	301.033328	1268.551368	-214.613073	324.647248	1053.927840	-33.160134	363.775598	1169.338913	-396.829014	342.497485	929.780476	-27.343039	360.224850	841.849783	-37.978449	333.333268	759.876557	-46.681460	395.175843	842.494971	-51.020108	314.078990	652.312124	-59.826833	293.511263	632.992569	-170.855788	253.474395	547.417808	-33.297023	231.854131	464.950334	-53.064676	173.722212	399.746493	-55.354109	251.588861	457.795782	-88.329859	128.526021	335.531779	-62.353099	76.496739	366.173558	-108.924908	186.936452	111.458624	-99.576459	124.272533	191.683342	-36.134697	409.833320	1068.070810	-421.369650	463.727757	1015.939706	-425.601379	509.023201	1032.813960	-406.993865	525.877440	943.106242	-418.920037	567.030559	829.475966	-389.481796	565.073057	812.637267	-271.188377	288.661731	564.822562	-383.313763	205.673777	565.347874	-337.712969	367.708303	450.552982	-406.520141	493.332872	747.086309	-410.983702	445.388225	676.455535	-394.253724	369.101958	633.783698	-399.912757	465.043284	659.634999	-364.661954	447.583494	422.160076	-345.972012	-203.575741	871.193654	-213.031637	-48.892179	84.631849	-419.567798	-50.423347	80.755102	-22.208901	
